<mxfile host="app.diagrams.net" agent="Mozilla/5.0 (Windows NT 10.0; Win64; x64) AppleWebKit/537.36 (KHTML, like Gecko) Chrome/131.0.0.0 Safari/537.36" version="25.0.3">
  <diagram id="KUyetaAOYO_Oen-bK6vU" name="Trang-1">
    <mxGraphModel dx="880" dy="468" grid="1" gridSize="10" guides="1" tooltips="1" connect="1" arrows="1" fold="1" page="1" pageScale="1" pageWidth="827" pageHeight="1169" math="0" shadow="0">
      <root>
        <mxCell id="0" />
        <mxCell id="1" parent="0" />
        <mxCell id="F_RJVSUF7ewWjMa-N7ep-6" style="edgeStyle=orthogonalEdgeStyle;rounded=0;orthogonalLoop=1;jettySize=auto;html=1;exitX=1;exitY=0.5;exitDx=0;exitDy=0;entryX=0;entryY=0.5;entryDx=0;entryDy=0;" edge="1" parent="1" source="Jzl4sxlFAShcDCS42P2A-1" target="F_RJVSUF7ewWjMa-N7ep-2">
          <mxGeometry relative="1" as="geometry" />
        </mxCell>
        <mxCell id="Jzl4sxlFAShcDCS42P2A-1" value="a,b" style="rounded=0;whiteSpace=wrap;html=1;" parent="1" vertex="1">
          <mxGeometry x="190" y="320" width="120" height="60" as="geometry" />
        </mxCell>
        <mxCell id="F_RJVSUF7ewWjMa-N7ep-5" style="edgeStyle=orthogonalEdgeStyle;rounded=0;orthogonalLoop=1;jettySize=auto;html=1;exitX=1;exitY=0.5;exitDx=0;exitDy=0;entryX=0;entryY=0.5;entryDx=0;entryDy=0;" edge="1" parent="1" source="Jzl4sxlFAShcDCS42P2A-2" target="Jzl4sxlFAShcDCS42P2A-1">
          <mxGeometry relative="1" as="geometry" />
        </mxCell>
        <mxCell id="Jzl4sxlFAShcDCS42P2A-2" value="Start" style="rounded=0;whiteSpace=wrap;html=1;" parent="1" vertex="1">
          <mxGeometry x="30" y="320" width="120" height="60" as="geometry" />
        </mxCell>
        <mxCell id="F_RJVSUF7ewWjMa-N7ep-7" style="edgeStyle=orthogonalEdgeStyle;rounded=0;orthogonalLoop=1;jettySize=auto;html=1;exitX=1;exitY=0.5;exitDx=0;exitDy=0;entryX=0;entryY=0.5;entryDx=0;entryDy=0;" edge="1" parent="1" source="F_RJVSUF7ewWjMa-N7ep-2" target="F_RJVSUF7ewWjMa-N7ep-3">
          <mxGeometry relative="1" as="geometry" />
        </mxCell>
        <mxCell id="F_RJVSUF7ewWjMa-N7ep-2" value="c=a+b" style="rhombus;whiteSpace=wrap;html=1;" vertex="1" parent="1">
          <mxGeometry x="350" y="310" width="80" height="80" as="geometry" />
        </mxCell>
        <mxCell id="F_RJVSUF7ewWjMa-N7ep-8" style="edgeStyle=orthogonalEdgeStyle;rounded=0;orthogonalLoop=1;jettySize=auto;html=1;exitX=1;exitY=0.5;exitDx=0;exitDy=0;entryX=0;entryY=0.5;entryDx=0;entryDy=0;" edge="1" parent="1" source="F_RJVSUF7ewWjMa-N7ep-3" target="F_RJVSUF7ewWjMa-N7ep-4">
          <mxGeometry relative="1" as="geometry" />
        </mxCell>
        <mxCell id="F_RJVSUF7ewWjMa-N7ep-3" value="c" style="rounded=0;whiteSpace=wrap;html=1;" vertex="1" parent="1">
          <mxGeometry x="470" y="320" width="120" height="60" as="geometry" />
        </mxCell>
        <mxCell id="F_RJVSUF7ewWjMa-N7ep-4" value="End" style="rounded=0;whiteSpace=wrap;html=1;" vertex="1" parent="1">
          <mxGeometry x="630" y="320" width="120" height="60" as="geometry" />
        </mxCell>
      </root>
    </mxGraphModel>
  </diagram>
</mxfile>
